# xmcd
#
# Track frame offsets:
#	150
#	16508
#	35129
#	63414
#
# Disc length: 1295 seconds
#
# Revision: 1
# Processed by: cddbd v1.4PL0 Copyright (c) Steve Scherf et al.
# Submitted via: EasyCDDAExtractor 5.0.7
#
DISCID=29050d04
DTITLE=Jools Holland And His Rhythm and Blues Orchestra - Oranges and Lemons Again
DTITLE=(Single)
DYEAR=2001
DGENRE=R&B
TTITLE0=Oranges and Lemons Again Feat. Suggs
TTITLE1=Valentine Moon Feat. Sam Brown
TTITLE2=I'm In A Dancing Mood
TTITLE3=Data Track
EXTD=
EXTT0=
EXTT1=
EXTT2=
EXTT3=
PLAYORDER=
